STARTFONT 2.1
FONT -FontForge-Peking Assignment-Book-R-Normal--32-310-75-75-P-93-ISO10646-1
SIZE 31 75 75
FONTBOUNDINGBOX 18 19 -4 -3
COMMENT "Generated by fontforge, http://fontforge.sourceforge.net"
COMMENT "Copyright NAL 2014"
STARTPROPERTIES 32
FOUNDRY "FontForge"
FAMILY_NAME "Peking Assignment"
WEIGHT_NAME "Book"
SLANT "R"
SETWIDTH_NAME "Normal"
ADD_STYLE_NAME ""
PIXEL_SIZE 32
POINT_SIZE 310
RESOLUTION_X 75
RESOLUTION_Y 75
SPACING "P"
AVERAGE_WIDTH 93
CHARSET_REGISTRY "ISO10646"
CHARSET_ENCODING "1"
FONTNAME_REGISTRY ""
CHARSET_COLLECTIONS "ISO10646-1"
FONT_NAME "Peking-Assignment"
FACE_NAME "Peking Assignment Regular"
COPYRIGHT "Copyright NAL 2014"
FONT_VERSION "001.000"
FONT_ASCENT 25
FONT_DESCENT 7
UNDERLINE_POSITION 0
UNDERLINE_THICKNESS 2
X_HEIGHT 10
CAP_HEIGHT 14
DEFAULT_CHAR 67
RAW_ASCENT 800
RAW_DESCENT 200
NORM_SPACE 4
AVG_LOWERCASE_WIDTH 95
AVG_UPPERCASE_WIDTH 120
ENDPROPERTIES
CHARS 100
STARTCHAR space
ENCODING 32
SWIDTH 100 0
DWIDTH 4 0
BBX 1 1 0 0
BITMAP
00
ENDCHAR
STARTCHAR exclam
ENCODING 33
SWIDTH 125 0
DWIDTH 4 0
BBX 2 14 0 1
BITMAP
C0
C0
C0
C0
C0
C0
C0
C0
C0
C0
00
00
C0
C0
ENDCHAR
STARTCHAR quotedbl
ENCODING 34
SWIDTH 187 0
DWIDTH 6 0
BBX 4 4 0 11
BITMAP
F0
F0
F0
A0
ENDCHAR
STARTCHAR numbersign
ENCODING 35
SWIDTH 375 0
DWIDTH 12 0
BBX 10 14 0 1
BITMAP
3300
3300
3300
3300
FFC0
FFC0
7300
3300
FFC0
FFC0
3300
3300
3300
3300
ENDCHAR
STARTCHAR dollar
ENCODING 36
SWIDTH 375 0
DWIDTH 12 0
BBX 10 18 0 -2
BITMAP
0C00
0C00
7FC0
FFC0
CCC0
CCC0
CC00
CC00
FFC0
FFC0
0CC0
0CC0
CCC0
CCC0
FF80
FF80
0C00
0C00
ENDCHAR
STARTCHAR percent
ENCODING 37
SWIDTH 375 0
DWIDTH 12 0
BBX 10 14 0 1
BITMAP
F0C0
F0C0
F0C0
F0C0
00C0
00C0
3FC0
FF80
C000
C000
C3C0
C3C0
C3C0
C3C0
ENDCHAR
STARTCHAR ampersand
ENCODING 38
SWIDTH 375 0
DWIDTH 12 0
BBX 10 14 0 1
BITMAP
CC00
DC00
C000
C000
C300
C300
FFC0
7FC0
C300
C300
C300
C300
FFC0
FFC0
ENDCHAR
STARTCHAR quotesingle
ENCODING 39
SWIDTH 125 0
DWIDTH 4 0
BBX 2 4 0 11
BITMAP
C0
C0
C0
80
ENDCHAR
STARTCHAR parenleft
ENCODING 40
SWIDTH 187 0
DWIDTH 6 0
BBX 4 14 0 1
BITMAP
F0
F0
C0
C0
C0
C0
C0
C0
C0
C0
C0
C0
F0
F0
ENDCHAR
STARTCHAR parenright
ENCODING 41
SWIDTH 187 0
DWIDTH 6 0
BBX 4 14 0 1
BITMAP
F0
F0
30
30
30
30
30
30
30
30
30
30
F0
F0
ENDCHAR
STARTCHAR asterisk
ENCODING 42
SWIDTH 250 0
DWIDTH 8 0
BBX 6 6 0 8
BITMAP
30
B4
30
30
FC
B4
ENDCHAR
STARTCHAR plus
ENCODING 43
SWIDTH 250 0
DWIDTH 8 0
BBX 6 6 0 4
BITMAP
30
30
FC
FC
30
30
ENDCHAR
STARTCHAR comma
ENCODING 44
SWIDTH 125 0
DWIDTH 4 0
BBX 2 3 0 -1
BITMAP
C0
C0
80
ENDCHAR
STARTCHAR hyphen
ENCODING 45
SWIDTH 250 0
DWIDTH 8 0
BBX 6 2 0 7
BITMAP
FC
FC
ENDCHAR
STARTCHAR period
ENCODING 46
SWIDTH 125 0
DWIDTH 4 0
BBX 2 2 0 0
BITMAP
C0
C0
ENDCHAR
STARTCHAR slash
ENCODING 47
SWIDTH 375 0
DWIDTH 12 0
BBX 10 14 0 1
BITMAP
00C0
00C0
00C0
00C0
00C0
00C0
3FC0
FF80
C000
C000
C000
C000
C000
C000
ENDCHAR
STARTCHAR zero
ENCODING 48
SWIDTH 300 0
DWIDTH 10 0
BBX 8 14 0 0
BITMAP
FF
FF
C3
C3
C3
C7
CF
DB
F3
E3
C3
C3
FF
FF
ENDCHAR
STARTCHAR one
ENCODING 49
SWIDTH 300 0
DWIDTH 10 0
BBX 3 14 4 0
BITMAP
60
60
E0
E0
20
60
60
60
60
60
60
60
60
60
ENDCHAR
STARTCHAR two
ENCODING 50
SWIDTH 300 0
DWIDTH 10 0
BBX 8 14 0 0
BITMAP
CE
DF
C3
C3
03
03
FF
FF
C0
C0
C3
C3
FB
F3
ENDCHAR
STARTCHAR three
ENCODING 51
SWIDTH 300 0
DWIDTH 10 0
BBX 8 14 0 0
BITMAP
F3
FB
C3
C3
03
03
3E
3C
03
03
C3
C3
FF
FF
ENDCHAR
STARTCHAR four
ENCODING 52
SWIDTH 300 0
DWIDTH 10 0
BBX 8 14 0 0
BITMAP
C6
C6
C6
C6
C6
C6
C6
C6
CF
DF
06
06
06
06
ENDCHAR
STARTCHAR five
ENCODING 53
SWIDTH 300 0
DWIDTH 10 0
BBX 8 14 0 0
BITMAP
F3
FB
C3
C3
C0
C0
FF
FF
03
03
C3
C3
CF
DE
ENDCHAR
STARTCHAR six
ENCODING 54
SWIDTH 300 0
DWIDTH 10 0
BBX 8 14 0 0
BITMAP
F3
FB
C3
C3
C0
C0
CF
DF
C3
C3
C3
C3
FF
FF
ENDCHAR
STARTCHAR seven
ENCODING 55
SWIDTH 300 0
DWIDTH 10 0
BBX 8 14 0 0
BITMAP
CF
DF
C3
03
03
03
7F
FE
C0
C0
C0
C0
C0
C0
ENDCHAR
STARTCHAR eight
ENCODING 56
SWIDTH 300 0
DWIDTH 10 0
BBX 8 14 0 0
BITMAP
F3
FB
C3
C3
C3
C3
3E
7C
C3
C3
C3
C3
FF
FF
ENDCHAR
STARTCHAR nine
ENCODING 57
SWIDTH 300 0
DWIDTH 10 0
BBX 8 14 0 0
BITMAP
FF
FF
C3
C3
C3
C3
FB
F3
03
03
C3
C3
DF
CF
ENDCHAR
STARTCHAR colon
ENCODING 58
SWIDTH 100 0
DWIDTH 4 0
BBX 2 6 0 5
BITMAP
C0
C0
00
00
C0
C0
ENDCHAR
STARTCHAR semicolon
ENCODING 59
SWIDTH 100 0
DWIDTH 4 0
BBX 2 7 0 3
BITMAP
C0
C0
00
00
C0
C0
C0
ENDCHAR
STARTCHAR less
ENCODING 60
SWIDTH 187 0
DWIDTH 6 0
BBX 4 14 0 1
BITMAP
F0
F0
C0
C0
C0
C0
C0
C0
C0
C0
C0
C0
F0
F0
ENDCHAR
STARTCHAR equal
ENCODING 61
SWIDTH 250 0
DWIDTH 8 0
BBX 6 6 0 4
BITMAP
FC
FC
00
00
FC
FC
ENDCHAR
STARTCHAR greater
ENCODING 62
SWIDTH 187 0
DWIDTH 6 0
BBX 4 14 0 1
BITMAP
F0
F0
30
30
30
30
30
30
30
30
30
30
F0
F0
ENDCHAR
STARTCHAR question
ENCODING 63
SWIDTH 375 0
DWIDTH 12 0
BBX 10 14 0 1
BITMAP
CF80
DF80
C0C0
C0C0
00C0
00C0
3FC0
3FC0
3000
3000
0000
0000
3000
3000
ENDCHAR
STARTCHAR at
ENCODING 64
SWIDTH 375 0
DWIDTH 12 0
BBX 10 14 0 1
BITMAP
FFC0
FFC0
C0C0
C0C0
CCC0
CCC0
CCC0
CCC0
CCC0
CDC0
0000
4000
FFC0
FFC0
ENDCHAR
STARTCHAR A
ENCODING 65
SWIDTH 375 0
DWIDTH 12 0
BBX 10 14 0 1
BITMAP
FFC0
FFC0
C0C0
C0C0
C0C0
C0C0
CFC0
DFC0
C0C0
C0C0
C0C0
C0C0
C0C0
C0C0
ENDCHAR
STARTCHAR B
ENCODING 66
SWIDTH 375 0
DWIDTH 12 0
BBX 10 14 0 1
BITMAP
CFC0
DFC0
C0C0
C0C0
C0C0
C0C0
CFC0
DF80
C0C0
C0C0
C0C0
C0C0
DFC0
DFC0
ENDCHAR
STARTCHAR C
ENCODING 67
SWIDTH 312 0
DWIDTH 10 0
BBX 8 12 0 1
BITMAP
F3
FB
C3
C3
C0
C0
C0
C0
C3
C3
FB
F3
ENDCHAR
STARTCHAR D
ENCODING 68
SWIDTH 375 0
DWIDTH 12 0
BBX 10 14 0 1
BITMAP
CFC0
DFC0
C0C0
C0C0
C0C0
C0C0
C0C0
C0C0
C0C0
C0C0
C0C0
C0C0
DFC0
DFC0
ENDCHAR
STARTCHAR E
ENCODING 69
SWIDTH 375 0
DWIDTH 12 0
BBX 10 14 0 1
BITMAP
CFC0
DFC0
C0C0
C0C0
C000
C000
CF00
DF00
C000
C000
C0C0
C0C0
FFC0
FFC0
ENDCHAR
STARTCHAR F
ENCODING 70
SWIDTH 375 0
DWIDTH 12 0
BBX 10 14 0 1
BITMAP
CFC0
DFC0
C0C0
C0C0
C000
C000
CF00
DF00
C000
C000
C000
C000
C000
C000
ENDCHAR
STARTCHAR G
ENCODING 71
SWIDTH 375 0
DWIDTH 12 0
BBX 10 14 0 1
BITMAP
FCC0
FFC0
C0C0
C0C0
C000
C000
CFC0
CFC0
C0C0
C0C0
C0C0
C0C0
FFC0
FEC0
ENDCHAR
STARTCHAR H
ENCODING 72
SWIDTH 375 0
DWIDTH 12 0
BBX 10 14 0 1
BITMAP
C0C0
C0C0
C0C0
C0C0
C0C0
C0C0
CFC0
DFC0
C0C0
C0C0
C0C0
C0C0
C0C0
C0C0
ENDCHAR
STARTCHAR I
ENCODING 73
SWIDTH 125 0
DWIDTH 4 0
BBX 2 14 0 1
BITMAP
C0
C0
C0
C0
C0
C0
C0
C0
C0
C0
C0
C0
C0
C0
ENDCHAR
STARTCHAR J
ENCODING 74
SWIDTH 375 0
DWIDTH 12 0
BBX 10 14 0 1
BITMAP
03C0
03C0
00C0
00C0
00C0
00C0
00C0
00C0
00C0
00C0
C0C0
C0C0
DFC0
DFC0
ENDCHAR
STARTCHAR K
ENCODING 75
SWIDTH 375 0
DWIDTH 12 0
BBX 10 14 0 1
BITMAP
C0C0
C0C0
C0C0
C0C0
C0C0
C0C0
CFC0
DF80
C0C0
C0C0
C0C0
C0C0
C0C0
C0C0
ENDCHAR
STARTCHAR L
ENCODING 76
SWIDTH 375 0
DWIDTH 12 0
BBX 10 14 0 1
BITMAP
F000
F000
C000
C000
C000
C000
C000
C000
C000
C000
C0C0
C0C0
CFC0
DFC0
ENDCHAR
STARTCHAR M
ENCODING 77
SWIDTH 500 0
DWIDTH 16 0
BBX 14 14 0 1
BITMAP
CF3C
DFFC
C30C
C30C
C30C
C30C
C30C
C30C
C30C
C30C
C30C
C30C
C30C
C30C
ENDCHAR
STARTCHAR N
ENCODING 78
SWIDTH 375 0
DWIDTH 12 0
BBX 10 14 0 1
BITMAP
CFC0
DFC0
C0C0
C0C0
C0C0
C0C0
C0C0
C0C0
C0C0
C0C0
C0C0
C0C0
C0C0
C0C0
ENDCHAR
STARTCHAR O
ENCODING 79
SWIDTH 312 0
DWIDTH 10 0
BBX 8 12 0 1
BITMAP
FF
FF
C3
C3
C3
C3
C3
C3
C3
C3
FF
FF
ENDCHAR
STARTCHAR P
ENCODING 80
SWIDTH 375 0
DWIDTH 12 0
BBX 10 14 0 1
BITMAP
CFC0
DFC0
C0C0
C0C0
C0C0
C0C0
DFC0
DFC0
C000
C000
C000
C000
C000
C000
ENDCHAR
STARTCHAR Q
ENCODING 81
SWIDTH 375 0
DWIDTH 12 0
BBX 10 16 0 -2
BITMAP
FFC0
FFC0
C0C0
C0C0
C0C0
C0C0
C0C0
C0C0
CCC0
CCC0
CCC0
CCC0
FDC0
FDC0
0C00
0C00
ENDCHAR
STARTCHAR R
ENCODING 82
SWIDTH 375 0
DWIDTH 12 0
BBX 10 14 0 1
BITMAP
CFC0
DFC0
C0C0
C0C0
C0C0
C0C0
FF80
DFC0
C0C0
C0C0
C0C0
C0C0
C0C0
C0C0
ENDCHAR
STARTCHAR S
ENCODING 83
SWIDTH 375 0
DWIDTH 12 0
BBX 10 14 0 1
BITMAP
FCC0
FFC0
C0C0
C0C0
C000
C000
FFC0
FFC0
00C0
00C0
C0C0
C0C0
DFC0
DFC0
ENDCHAR
STARTCHAR T
ENCODING 84
SWIDTH 375 0
DWIDTH 12 0
BBX 10 14 0 1
BITMAP
FFC0
EFC0
CCC0
CCC0
0C00
0C00
0C00
0C00
0C00
0C00
0C00
0C00
0C00
0C00
ENDCHAR
STARTCHAR U
ENCODING 85
SWIDTH 375 0
DWIDTH 12 0
BBX 10 14 0 1
BITMAP
C0C0
C0C0
C0C0
C0C0
C0C0
C0C0
C0C0
C0C0
C0C0
C0C0
C0C0
C0C0
FFC0
FEC0
ENDCHAR
STARTCHAR V
ENCODING 86
SWIDTH 375 0
DWIDTH 12 0
BBX 10 14 0 1
BITMAP
C0C0
C0C0
C0C0
C0C0
C0C0
C0C0
C0C0
C0C0
C0C0
C0C0
C0C0
C0C0
FFC0
7F80
ENDCHAR
STARTCHAR W
ENCODING 87
SWIDTH 500 0
DWIDTH 16 0
BBX 14 14 0 1
BITMAP
C30C
C30C
C30C
C30C
C30C
C30C
C30C
C30C
C30C
C30C
C30C
C30C
FBEC
FBEC
ENDCHAR
STARTCHAR X
ENCODING 88
SWIDTH 375 0
DWIDTH 12 0
BBX 10 14 0 1
BITMAP
C0C0
C0C0
C0C0
C0C0
C0C0
40C0
FFC0
FFC0
C080
C080
C0C0
C0C0
C0C0
C0C0
ENDCHAR
STARTCHAR Y
ENCODING 89
SWIDTH 375 0
DWIDTH 12 0
BBX 10 14 0 1
BITMAP
C0C0
C0C0
C0C0
C0C0
C0C0
40C0
FFC0
FFC0
0000
0800
0C00
0C00
0C00
0C00
ENDCHAR
STARTCHAR Z
ENCODING 90
SWIDTH 375 0
DWIDTH 12 0
BBX 10 14 0 1
BITMAP
CFC0
DFC0
C0C0
C0C0
00C0
00C0
3FC0
FF80
C000
C000
C0C0
C0C0
FFC0
FEC0
ENDCHAR
STARTCHAR bracketleft
ENCODING 91
SWIDTH 187 0
DWIDTH 6 0
BBX 4 14 0 1
BITMAP
F0
F0
C0
C0
C0
C0
C0
C0
C0
C0
C0
C0
F0
F0
ENDCHAR
STARTCHAR backslash
ENCODING 92
SWIDTH 375 0
DWIDTH 12 0
BBX 10 14 0 1
BITMAP
C000
C000
C000
C000
C000
C000
FF80
7FC0
00C0
00C0
00C0
00C0
00C0
00C0
ENDCHAR
STARTCHAR bracketright
ENCODING 93
SWIDTH 187 0
DWIDTH 6 0
BBX 4 14 0 1
BITMAP
F0
F0
30
30
30
30
30
30
30
30
30
30
F0
F0
ENDCHAR
STARTCHAR asciicircum
ENCODING 94
SWIDTH 125 0
DWIDTH 4 0
BBX 2 4 0 11
BITMAP
C0
C0
C0
80
ENDCHAR
STARTCHAR underscore
ENCODING 95
SWIDTH 375 0
DWIDTH 12 0
BBX 10 2 0 0
BITMAP
FFC0
FFC0
ENDCHAR
STARTCHAR grave
ENCODING 96
SWIDTH 125 0
DWIDTH 4 0
BBX 2 4 0 11
BITMAP
C0
C0
C0
80
ENDCHAR
STARTCHAR a
ENCODING 97
SWIDTH 312 0
DWIDTH 10 0
BBX 8 10 0 1
BITMAP
F3
FB
C3
C3
C3
C3
C3
C3
FB
F3
ENDCHAR
STARTCHAR b
ENCODING 98
SWIDTH 312 0
DWIDTH 10 0
BBX 8 14 0 1
BITMAP
C0
C0
C0
C0
CF
FF
C3
C3
C3
C3
C3
C3
DF
DF
ENDCHAR
STARTCHAR c
ENCODING 99
SWIDTH 312 0
DWIDTH 10 0
BBX 8 10 0 1
BITMAP
FF
FF
43
C3
C0
C0
C3
C3
FF
FF
ENDCHAR
STARTCHAR d
ENCODING 100
SWIDTH 312 0
DWIDTH 10 0
BBX 8 14 0 1
BITMAP
03
03
03
03
F3
FB
C3
C3
C3
C3
C3
C3
FB
FB
ENDCHAR
STARTCHAR e
ENCODING 101
SWIDTH 312 0
DWIDTH 10 0
BBX 8 10 0 1
BITMAP
FF
FF
43
C3
DF
DF
C0
C0
FF
FF
ENDCHAR
STARTCHAR f
ENCODING 102
SWIDTH 250 0
DWIDTH 8 0
BBX 6 14 0 1
BITMAP
FC
FC
C0
00
FC
FC
C0
C0
C0
C0
C0
C0
C0
C0
ENDCHAR
STARTCHAR g
ENCODING 103
SWIDTH 312 0
DWIDTH 10 0
BBX 8 14 0 -3
BITMAP
F3
FB
C3
C3
C3
C3
C3
C3
FB
F3
03
03
3F
3F
ENDCHAR
STARTCHAR h
ENCODING 104
SWIDTH 312 0
DWIDTH 10 0
BBX 8 14 0 1
BITMAP
C0
C0
C0
C0
CF
FF
C3
C3
C3
C3
C3
C3
C3
C3
ENDCHAR
STARTCHAR i
ENCODING 105
SWIDTH 125 0
DWIDTH 4 0
BBX 2 14 0 1
BITMAP
C0
C0
00
00
C0
C0
C0
C0
C0
C0
C0
C0
C0
C0
ENDCHAR
STARTCHAR j
ENCODING 106
SWIDTH 125 0
DWIDTH 4 0
BBX 6 18 -4 -3
BITMAP
0C
0C
00
00
0C
0C
0C
0C
0C
0C
0C
0C
0C
0C
0C
0C
FC
FC
ENDCHAR
STARTCHAR k
ENCODING 107
SWIDTH 312 0
DWIDTH 10 0
BBX 8 14 0 1
BITMAP
C0
C0
C0
C0
C3
C3
C3
03
FF
FF
C0
C2
C3
C3
ENDCHAR
STARTCHAR l
ENCODING 108
SWIDTH 125 0
DWIDTH 4 0
BBX 2 14 0 1
BITMAP
C0
C0
C0
C0
C0
C0
C0
C0
C0
C0
C0
C0
C0
C0
ENDCHAR
STARTCHAR m
ENCODING 109
SWIDTH 500 0
DWIDTH 16 0
BBX 14 10 0 1
BITMAP
DF7C
FFFC
C30C
C30C
C30C
C30C
C30C
C30C
C30C
C30C
ENDCHAR
STARTCHAR n
ENCODING 110
SWIDTH 312 0
DWIDTH 10 0
BBX 8 10 0 1
BITMAP
DF
FF
C3
C3
C3
C3
C3
C3
C3
C3
ENDCHAR
STARTCHAR o
ENCODING 111
SWIDTH 312 0
DWIDTH 10 0
BBX 8 10 0 1
BITMAP
FF
FF
C3
C3
C3
C3
C3
C3
FF
FF
ENDCHAR
STARTCHAR p
ENCODING 112
SWIDTH 312 0
DWIDTH 10 0
BBX 8 14 0 -3
BITMAP
DF
FF
C3
C3
C3
C3
C3
C3
DF
DF
C0
C0
C0
C0
ENDCHAR
STARTCHAR q
ENCODING 113
SWIDTH 312 0
DWIDTH 10 0
BBX 8 14 0 -3
BITMAP
F3
FB
C3
C3
C3
C3
C3
C3
FB
F3
03
03
03
03
ENDCHAR
STARTCHAR r
ENCODING 114
SWIDTH 250 0
DWIDTH 8 0
BBX 6 10 0 1
BITMAP
DC
FC
C0
C0
C0
C0
C0
C0
C0
C0
ENDCHAR
STARTCHAR s
ENCODING 115
SWIDTH 312 0
DWIDTH 10 0
BBX 8 10 0 1
BITMAP
FF
FF
C0
00
FF
FF
03
03
FF
FF
ENDCHAR
STARTCHAR t
ENCODING 116
SWIDTH 250 0
DWIDTH 8 0
BBX 6 14 0 1
BITMAP
C0
C0
C0
C0
FC
FC
40
C0
C0
C0
C0
C0
FC
FC
ENDCHAR
STARTCHAR u
ENCODING 117
SWIDTH 312 0
DWIDTH 10 0
BBX 8 10 0 1
BITMAP
C3
C3
C3
C3
C3
C3
C3
C3
FB
F3
ENDCHAR
STARTCHAR v
ENCODING 118
SWIDTH 312 0
DWIDTH 10 0
BBX 8 10 0 1
BITMAP
C3
C3
C3
C3
C3
C3
C3
C3
FF
3E
ENDCHAR
STARTCHAR w
ENCODING 119
SWIDTH 500 0
DWIDTH 16 0
BBX 14 10 0 1
BITMAP
C30C
C30C
C30C
C30C
C30C
C30C
C30C
C30C
FBEC
F3CC
ENDCHAR
STARTCHAR x
ENCODING 120
SWIDTH 312 0
DWIDTH 10 0
BBX 8 10 0 1
BITMAP
C3
C3
C3
03
FF
FF
C0
C2
C3
C3
ENDCHAR
STARTCHAR y
ENCODING 121
SWIDTH 312 0
DWIDTH 10 0
BBX 8 14 0 -3
BITMAP
C3
C3
C3
C3
C3
C3
C3
C3
FB
F3
03
03
3F
3F
ENDCHAR
STARTCHAR z
ENCODING 122
SWIDTH 312 0
DWIDTH 10 0
BBX 8 10 0 1
BITMAP
FF
FF
03
03
FF
FF
C0
00
FF
FF
ENDCHAR
STARTCHAR braceleft
ENCODING 123
SWIDTH 250 0
DWIDTH 8 0
BBX 6 14 0 1
BITMAP
3C
3C
30
30
30
30
F0
F0
30
30
30
30
3C
3C
ENDCHAR
STARTCHAR bar
ENCODING 124
SWIDTH 125 0
DWIDTH 4 0
BBX 2 14 0 1
BITMAP
C0
C0
C0
C0
C0
C0
C0
C0
C0
C0
C0
C0
C0
C0
ENDCHAR
STARTCHAR braceright
ENCODING 125
SWIDTH 250 0
DWIDTH 8 0
BBX 6 14 0 1
BITMAP
F0
F0
30
30
30
30
3C
3C
30
30
30
30
F0
F0
ENDCHAR
STARTCHAR asciitilde
ENCODING 126
SWIDTH 250 0
DWIDTH 8 0
BBX 6 2 0 7
BITMAP
FC
FC
ENDCHAR
STARTCHAR quoteleft
ENCODING 8216
SWIDTH 125 0
DWIDTH 4 0
BBX 2 4 0 10
BITMAP
40
C0
C0
C0
ENDCHAR
STARTCHAR quoteright
ENCODING 8217
SWIDTH 125 0
DWIDTH 4 0
BBX 2 4 0 11
BITMAP
C0
C0
C0
80
ENDCHAR
STARTCHAR quotedblleft
ENCODING 8220
SWIDTH 187 0
DWIDTH 6 0
BBX 4 4 0 10
BITMAP
50
F0
F0
F0
ENDCHAR
STARTCHAR quotedblright
ENCODING 8221
SWIDTH 187 0
DWIDTH 6 0
BBX 4 4 0 11
BITMAP
F0
F0
F0
A0
ENDCHAR
STARTCHAR .notdef
ENCODING 8235
SWIDTH 125 0
DWIDTH 4 0
BBX 1 1 0 0
BITMAP
00
ENDCHAR
ENDFONT
